<svg width="18" height="19" viewBox="0 0 18 19" fill="none" xmlns="http://www.w3.org/2000/svg">
<path d="M3.98077 16.6256C3.60193 16.6256 3.28125 16.4943 3.01875 16.2318C2.75625 15.9693 2.625 15.6486 2.625 15.2698V5.23137C2.625 4.85252 2.75625 4.53184 3.01875 4.26934C3.28125 4.00684 3.60193 3.87559 3.98077 3.87559H5.01924V2.86596C5.01924 2.70155 5.07429 2.56429 5.18439 2.45419C5.29448 2.34411 5.43174 2.28906 5.59616 2.28906C5.76058 2.28906 5.89783 2.34411 6.00793 2.45419C6.11802 2.56429 6.17306 2.70155 6.17306 2.86596V3.87559H11.8557V2.85154C11.8557 2.69193 11.9096 2.55828 12.0173 2.45059C12.125 2.34291 12.2586 2.28906 12.4182 2.28906C12.5778 2.28906 12.7115 2.34291 12.8192 2.45059C12.9269 2.55828 12.9807 2.69193 12.9807 2.85154V3.87559H14.0192C14.398 3.87559 14.7187 4.00684 14.9812 4.26934C15.2437 4.53184 15.375 4.85252 15.375 5.23137V15.2698C15.375 15.6486 15.2437 15.9693 14.9812 16.2318C14.7187 16.4943 14.398 16.6256 14.0192 16.6256H3.98077ZM3.98077 15.5006H14.0192C14.0769 15.5006 14.1298 15.4765 14.1779 15.4285C14.2259 15.3804 14.25 15.3275 14.25 15.2698V8.23137H3.74998V15.2698C3.74998 15.3275 3.77402 15.3804 3.82209 15.4285C3.87018 15.4765 3.92308 15.5006 3.98077 15.5006ZM3.74998 7.10639H14.25V5.23137C14.25 5.17367 14.2259 5.12078 14.1779 5.07269C14.1298 5.02461 14.0769 5.00058 14.0192 5.00058H3.98077C3.92308 5.00058 3.87018 5.02461 3.82209 5.07269C3.77402 5.12078 3.74998 5.17367 3.74998 5.23137V7.10639Z" fill="#787486"/>
</svg>
