<svg width="18" height="18" viewBox="0 0 18 18" fill="none" xmlns="http://www.w3.org/2000/svg">
<path d="M6.87667 9.00002L12.5262 14.6495C12.6752 14.7986 12.7478 14.976 12.744 15.1817C12.7401 15.3875 12.6637 15.5649 12.5147 15.7139C12.3656 15.863 12.1882 15.9375 11.9825 15.9375C11.7767 15.9375 11.5993 15.863 11.4503 15.7139L5.70843 9.96058C5.57286 9.825 5.47238 9.67309 5.40699 9.50482C5.34162 9.33655 5.30893 9.16828 5.30893 9.00002C5.30893 8.83175 5.34162 8.66349 5.40699 8.49521C5.47238 8.32695 5.57286 8.17503 5.70843 8.03945L11.4618 2.28609C11.6108 2.13706 11.7863 2.06445 11.9882 2.06829C12.1902 2.07214 12.3656 2.14859 12.5147 2.29762C12.6637 2.44666 12.7382 2.62406 12.7382 2.82982C12.7382 3.03559 12.6637 3.21299 12.5147 3.36202L6.87667 9.00002Z" fill="#333236"/>
</svg>
