<svg width="16" height="16" viewBox="0 0 16 16" fill="none" xmlns="http://www.w3.org/2000/svg">
<path d="M7.37435 8.69364V11.402C7.37435 11.5793 7.43418 11.7278 7.55383 11.8475C7.67348 11.9672 7.82198 12.027 7.99933 12.027C8.17668 12.027 8.32518 11.9672 8.44483 11.8475C8.56448 11.7278 8.62431 11.5793 8.62431 11.402V8.69364H11.3327C11.51 8.69364 11.6585 8.63382 11.7782 8.51416C11.8978 8.39451 11.9576 8.24601 11.9576 8.06866C11.9576 7.89132 11.8978 7.74282 11.7782 7.62316C11.6585 7.50351 11.51 7.44369 11.3327 7.44369H8.62431V4.73533C8.62431 4.55798 8.56448 4.40948 8.44483 4.28983C8.32518 4.17018 8.17668 4.11035 7.99933 4.11035C7.82198 4.11035 7.67348 4.17018 7.55383 4.28983C7.43418 4.40948 7.37435 4.55798 7.37435 4.73533V7.44369H4.66599C4.48865 7.44369 4.34015 7.50351 4.22049 7.62316C4.10084 7.74282 4.04102 7.89132 4.04102 8.06866C4.04102 8.24601 4.10084 8.39451 4.22049 8.51416C4.34015 8.63382 4.48865 8.69364 4.66599 8.69364H7.37435ZM2.42243 15.152C2.00149 15.152 1.64518 15.0061 1.35352 14.7145C1.06185 14.4228 0.916016 14.0665 0.916016 13.6456V2.49177C0.916016 2.07082 1.06185 1.71452 1.35352 1.42285C1.64518 1.13118 2.00149 0.985352 2.42243 0.985352H13.5762C13.9972 0.985352 14.3535 1.13118 14.6451 1.42285C14.9368 1.71452 15.0826 2.07082 15.0826 2.49177V13.6456C15.0826 14.0665 14.9368 14.4228 14.6451 14.7145C14.3535 15.0061 13.9972 15.152 13.5762 15.152H2.42243ZM2.42243 13.902H13.5762C13.6403 13.902 13.6991 13.8753 13.7525 13.8219C13.806 13.7684 13.8327 13.7097 13.8327 13.6456V2.49177C13.8327 2.42766 13.806 2.36889 13.7525 2.31546C13.6991 2.26204 13.6403 2.23533 13.5762 2.23533H2.42243C2.35832 2.23533 2.29955 2.26204 2.24612 2.31546C2.1927 2.36889 2.16599 2.42766 2.16599 2.49177V13.6456C2.16599 13.7097 2.1927 13.7684 2.24612 13.8219C2.29955 13.8753 2.35832 13.902 2.42243 13.902Z" fill="#787486"/>
</svg>
