<svg width="80" height="23" viewBox="0 0 80 23" fill="none" xmlns="http://www.w3.org/2000/svg">
<path d="M5.03044 18.0066V5.37159H0V2.43529H13.699V5.37159H8.66852V18.0066H5.03044Z" fill="white"/>
<path d="M21.6958 18.0066V15.6709L21.4713 15.1593V10.9772C21.4713 10.2358 21.2392 9.6574 20.7751 9.24216C20.3259 8.82693 19.6298 8.61931 18.6866 8.61931C18.0428 8.61931 17.4065 8.72312 16.7777 8.93074C16.1639 9.12352 15.6399 9.39046 15.2057 9.73155L13.9481 7.30688C14.6068 6.84715 15.4003 6.49124 16.3285 6.23913C17.2568 5.98702 18.2 5.86097 19.1582 5.86097C20.9997 5.86097 22.4294 6.29103 23.4475 7.15116C24.4656 8.01129 24.9746 9.35339 24.9746 11.1775V18.0066H21.6958ZM18.0128 18.1845C17.0696 18.1845 16.2612 18.0288 15.5875 17.7174C14.9137 17.3911 14.3972 16.9537 14.0379 16.405C13.6786 15.8563 13.4989 15.2408 13.4989 14.5586C13.4989 13.8468 13.6711 13.224 14.0154 12.6901C14.3748 12.1562 14.9362 11.741 15.6997 11.4444C16.4633 11.133 17.4589 10.9772 18.6866 10.9772H21.898V13.0015H19.0683C18.2449 13.0015 17.676 13.135 17.3616 13.4019C17.0622 13.6689 16.9124 14.0025 16.9124 14.4029C16.9124 14.8478 17.0846 15.2037 17.429 15.4707C17.7883 15.7228 18.2748 15.8488 18.8887 15.8488C19.4726 15.8488 19.9966 15.7154 20.4607 15.4484C20.9248 15.1667 21.2617 14.7588 21.4713 14.225L22.0102 15.8266C21.7557 16.5977 21.2916 17.1835 20.6179 17.5839C19.9442 17.9843 19.0758 18.1845 18.0128 18.1845Z" fill="white"/>
<path d="M31.6997 18.1845C30.6666 18.1845 29.671 18.0659 28.7129 17.8286C27.7696 17.5765 27.0211 17.2651 26.4671 16.8943L27.6349 14.4029C28.1888 14.744 28.8401 15.0258 29.5887 15.2482C30.3522 15.4558 31.1008 15.5597 31.8344 15.5597C32.6429 15.5597 33.2118 15.4633 33.5412 15.2705C33.8855 15.0777 34.0577 14.8108 34.0577 14.4697C34.0577 14.1879 33.9229 13.9803 33.6535 13.8468C33.3989 13.6985 33.0546 13.5873 32.6204 13.5131C32.1862 13.439 31.7072 13.3648 31.1832 13.2907C30.6741 13.2165 30.1576 13.1202 29.6336 13.0015C29.1096 12.868 28.6305 12.6753 28.1963 12.4232C27.7622 12.171 27.4103 11.83 27.1408 11.3999C26.8863 10.9698 26.7591 10.4137 26.7591 9.73155C26.7591 8.97523 26.9762 8.30789 27.4103 7.72952C27.8595 7.15116 28.5033 6.69885 29.3417 6.3726C30.1801 6.03151 31.1832 5.86097 32.3509 5.86097C33.1744 5.86097 34.0128 5.94995 34.8661 6.12791C35.7195 6.30586 36.4307 6.56539 36.9996 6.90647L35.8318 9.37563C35.2479 9.03455 34.6565 8.80468 34.0577 8.68605C33.4738 8.55258 32.9049 8.48584 32.3509 8.48584C31.5724 8.48584 31.0035 8.58965 30.6442 8.79727C30.2849 9.00489 30.1052 9.27182 30.1052 9.59808C30.1052 9.89468 30.2325 10.1171 30.487 10.2654C30.7565 10.4137 31.1083 10.5324 31.5425 10.6213C31.9766 10.7103 32.4482 10.7919 32.9573 10.866C33.4813 10.9253 34.0053 11.0217 34.5293 11.1552C35.0533 11.2887 35.5249 11.4815 35.9441 11.7336C36.3783 11.9708 36.7301 12.3045 36.9996 12.7346C37.2691 13.1498 37.4038 13.6985 37.4038 14.3807C37.4038 15.1222 37.1793 15.7821 36.7301 16.3605C36.281 16.924 35.6297 17.3689 34.7763 17.6951C33.9379 18.0214 32.9124 18.1845 31.6997 18.1845Z" fill="white"/>
<path d="M41.9519 15.5597L42.0418 11.3332L47.6786 6.03893H51.8556L46.4434 11.4889L44.6244 12.957L41.9519 15.5597ZM39.0549 18.0066V1.50101H42.5583V18.0066H39.0549ZM48.0603 18.0066L43.9731 12.9793L46.1739 10.2877L52.3048 18.0066H48.0603Z" fill="white"/>
<path d="M53.3699 18.0066V6.03893H56.8732V18.0066H53.3699ZM55.1215 4.37058C54.4778 4.37058 53.9538 4.1852 53.5495 3.81446C53.1453 3.44371 52.9432 2.98399 52.9432 2.43529C52.9432 1.88659 53.1453 1.42686 53.5495 1.05612C53.9538 0.685373 54.4778 0.5 55.1215 0.5C55.7653 0.5 56.2893 0.677958 56.6936 1.03387C57.0978 1.37496 57.2999 1.81985 57.2999 2.36856C57.2999 2.94692 57.0978 3.42888 56.6936 3.81446C56.3043 4.1852 55.7803 4.37058 55.1215 4.37058Z" fill="white"/>
<path d="M60.0409 18.0066V5.77199C60.0409 4.42248 60.4451 3.34732 61.2536 2.54651C62.0621 1.73087 63.2149 1.32305 64.712 1.32305C65.2211 1.32305 65.7076 1.37496 66.1718 1.47877C66.6508 1.58258 67.0551 1.7457 67.3845 1.96815L66.4637 4.4818C66.2691 4.34833 66.052 4.24452 65.8124 4.17037C65.5729 4.09623 65.3184 4.05915 65.0489 4.05915C64.5398 4.05915 64.1431 4.20745 63.8587 4.50404C63.5892 4.78581 63.4544 5.21587 63.4544 5.79424V6.90647L63.5443 8.39686V18.0066H60.0409ZM58.177 8.97523V6.30586H66.5535V8.97523H58.177Z" fill="white"/>
<path d="M69.5349 22.5C68.9061 22.5 68.2848 22.4036 67.6709 22.2108C67.0571 22.018 66.5556 21.7511 66.1663 21.41L67.4464 18.9408C67.7159 19.1781 68.0228 19.3635 68.3671 19.497C68.7264 19.6304 69.0783 19.6972 69.4226 19.6972C69.9167 19.6972 70.3059 19.5785 70.5904 19.3413C70.8898 19.1188 71.1593 18.7406 71.3988 18.2068L72.0277 16.7386L72.2971 16.3605L76.6314 6.03893H80L74.5429 18.7406C74.1536 19.7046 73.7045 20.4609 73.1954 21.0096C72.7014 21.5583 72.1474 21.9439 71.5336 22.1663C70.9347 22.3888 70.2685 22.5 69.5349 22.5ZM71.601 18.4737L66.2112 6.03893H69.8268L74.0039 16.049L71.601 18.4737Z" fill="white"/>
</svg>
