<svg width="81" height="23" viewBox="0 0 81 23" fill="none" xmlns="http://www.w3.org/2000/svg">
<path d="M5.43801 18.0408V5.40577H0.407578V2.46947H14.1065V5.40577H9.07609V18.0408H5.43801Z" fill="#5534DA"/>
<path d="M22.1034 18.0408V15.7051L21.8788 15.1934V11.0114C21.8788 10.2699 21.6468 9.69158 21.1827 9.27634C20.7335 8.86111 20.0373 8.65349 19.0941 8.65349C18.4504 8.65349 17.8141 8.7573 17.1853 8.96492C16.5714 9.1577 16.0474 9.42464 15.6133 9.76573L14.3556 7.34105C15.0144 6.88133 15.8079 6.52542 16.7361 6.27331C17.6644 6.0212 18.6076 5.89515 19.5657 5.89515C21.4072 5.89515 22.837 6.32521 23.8551 7.18534C24.8732 8.04547 25.3822 9.38757 25.3822 11.2116V18.0408H22.1034ZM18.4204 18.2187C17.4772 18.2187 16.6688 18.063 15.995 17.7516C15.3213 17.4253 14.8048 16.9878 14.4455 16.4391C14.0862 15.8904 13.9065 15.275 13.9065 14.5928C13.9065 13.881 14.0787 13.2581 14.423 12.7243C14.7823 12.1904 15.3438 11.7752 16.1073 11.4786C16.8709 11.1671 17.8665 11.0114 19.0941 11.0114H22.3055V13.0357H19.4759C18.6525 13.0357 18.0836 13.1692 17.7692 13.4361C17.4697 13.703 17.32 14.0367 17.32 14.4371C17.32 14.882 17.4922 15.2379 17.8365 15.5049C18.1958 15.757 18.6824 15.883 19.2963 15.883C19.8801 15.883 20.4042 15.7495 20.8683 15.4826C21.3324 15.2008 21.6692 14.793 21.8788 14.2592L22.4178 15.8608C22.1633 16.6319 21.6992 17.2177 21.0255 17.6181C20.3517 18.0185 19.4834 18.2187 18.4204 18.2187Z" fill="#5534DA"/>
<path d="M32.1073 18.2187C31.0742 18.2187 30.0786 18.1001 29.1204 17.8628C28.1772 17.6107 27.4286 17.2993 26.8747 16.9285L28.0425 14.4371C28.5964 14.7782 29.2477 15.06 29.9963 15.2824C30.7598 15.49 31.5084 15.5938 32.242 15.5938C33.0505 15.5938 33.6194 15.4974 33.9487 15.3047C34.2931 15.1119 34.4653 14.8449 34.4653 14.5038C34.4653 14.2221 34.3305 14.0145 34.061 13.881C33.8065 13.7327 33.4622 13.6215 33.028 13.5473C32.5938 13.4732 32.1147 13.399 31.5907 13.3249C31.0817 13.2507 30.5652 13.1543 30.0412 13.0357C29.5172 12.9022 29.0381 12.7094 28.6039 12.4573C28.1697 12.2052 27.8179 11.8641 27.5484 11.4341C27.2939 11.004 27.1666 10.4479 27.1666 9.76573C27.1666 9.00941 27.3837 8.34207 27.8179 7.7637C28.2671 7.18534 28.9108 6.73303 29.7492 6.40678C30.5876 6.06569 31.5907 5.89515 32.7585 5.89515C33.5819 5.89515 34.4203 5.98413 35.2737 6.16209C36.1271 6.34004 36.8383 6.59957 37.4072 6.94065L36.2394 9.40981C35.6555 9.06873 35.0641 8.83886 34.4653 8.72023C33.8814 8.58676 33.3125 8.52002 32.7585 8.52002C31.98 8.52002 31.4111 8.62383 31.0518 8.83145C30.6924 9.03907 30.5128 9.306 30.5128 9.63226C30.5128 9.92885 30.64 10.1513 30.8946 10.2996C31.164 10.4479 31.5159 10.5665 31.9501 10.6555C32.3842 10.7445 32.8558 10.8261 33.3649 10.9002C33.8889 10.9595 34.4129 11.0559 34.9369 11.1894C35.4609 11.3229 35.9325 11.5156 36.3517 11.7677C36.7859 12.005 37.1377 12.3387 37.4072 12.7688C37.6767 13.184 37.8114 13.7327 37.8114 14.4149C37.8114 15.1564 37.5868 15.8163 37.1377 16.3946C36.6885 16.9582 36.0373 17.4031 35.1839 17.7293C34.3455 18.0556 33.3199 18.2187 32.1073 18.2187Z" fill="#5534DA"/>
<path d="M42.3595 15.5938L42.4493 11.3673L48.0861 6.07311H52.2632L46.851 11.5231L45.0319 12.9912L42.3595 15.5938ZM39.4625 18.0408V1.53519H42.9659V18.0408H39.4625ZM48.4679 18.0408L44.3807 13.0135L46.5815 10.3218L52.7123 18.0408H48.4679Z" fill="#5534DA"/>
<path d="M53.7775 18.0408V6.07311H57.2808V18.0408H53.7775ZM55.5291 4.40476C54.8853 4.40476 54.3613 4.21938 53.9571 3.84864C53.5529 3.47789 53.3508 3.01817 53.3508 2.46947C53.3508 1.92077 53.5529 1.46104 53.9571 1.0903C54.3613 0.719552 54.8853 0.53418 55.5291 0.53418C56.1729 0.53418 56.6969 0.712138 57.1011 1.06805C57.5054 1.40914 57.7075 1.85403 57.7075 2.40273C57.7075 2.9811 57.5054 3.46306 57.1011 3.84864C56.7119 4.21938 56.1879 4.40476 55.5291 4.40476Z" fill="#5534DA"/>
<path d="M60.4485 18.0408V5.80617C60.4485 4.45666 60.8527 3.3815 61.6612 2.58069C62.4696 1.76505 63.6225 1.35723 65.1196 1.35723C65.6286 1.35723 66.1152 1.40914 66.5793 1.51295C67.0584 1.61675 67.4627 1.77988 67.792 2.00233L66.8713 4.51598C66.6767 4.38251 66.4596 4.2787 66.22 4.20455C65.9805 4.1304 65.726 4.09333 65.4565 4.09333C64.9474 4.09333 64.5507 4.24163 64.2662 4.53822C63.9967 4.81999 63.862 5.25005 63.862 5.82842V6.94065L63.9518 8.43104V18.0408H60.4485ZM58.5845 9.00941V6.34004H66.9611V9.00941H58.5845Z" fill="#5534DA"/>
<path d="M69.9425 22.5342C69.3137 22.5342 68.6923 22.4378 68.0785 22.245C67.4647 22.0522 66.9631 21.7853 66.5739 21.4442L67.8539 18.975C68.1234 19.2123 68.4303 19.3977 68.7747 19.5311C69.134 19.6646 69.4858 19.7313 69.8302 19.7313C70.3242 19.7313 70.7135 19.6127 70.998 19.3754C71.2974 19.153 71.5669 18.7748 71.8064 18.241L72.4352 16.7728L72.7047 16.3946L77.039 6.07311H80.4076L74.9504 18.7748C74.5612 19.7388 74.112 20.4951 73.603 21.0438C73.109 21.5925 72.555 21.9781 71.9412 22.2005C71.3423 22.423 70.6761 22.5342 69.9425 22.5342ZM72.0085 18.5079L66.6188 6.07311H70.2344L74.4115 16.0832L72.0085 18.5079Z" fill="#5534DA"/>
</svg>
