<svg width="24" height="28" viewBox="0 0 24 28" fill="none" xmlns="http://www.w3.org/2000/svg">
<path d="M23.6164 2.08318C23.6055 2.06142 23.58 2.04692 23.5546 2.05417C23.3329 2.14845 23.1111 2.22822 22.8821 2.31162C22.2532 2.54368 21.5989 2.69597 20.9445 2.84827C20.1957 3.01506 19.4323 3.13472 18.6871 3.31965C18.0437 3.47556 17.4039 3.66412 16.7859 3.91069C16.3206 4.09199 15.8626 4.28779 15.4336 4.53798C14.9247 4.81719 14.5139 5.23418 14.114 5.64754C13.7469 6.0319 13.3761 6.41625 13.0526 6.8405C12.8708 7.07981 12.7181 7.34088 12.5727 7.60196C12.8017 6.73897 13.1216 5.86873 13.7069 5.17979C13.7505 5.1254 13.6996 5.06013 13.6378 5.08914C13.4888 5.16166 13.3506 5.25593 13.2089 5.34296C12.1256 6.07541 11.1586 6.98554 10.3262 7.98994C9.91903 8.4867 9.52643 8.99434 9.2029 9.54912C8.82847 10.1982 8.54493 10.898 8.34136 11.6196C8.31955 11.1917 8.3559 10.7638 8.41406 10.3396C8.42497 10.2634 8.43587 10.1909 8.43951 10.1148C8.43951 10.064 8.45405 9.99149 8.40316 9.96248C8.3668 9.94435 8.33045 9.96249 8.30501 9.99149C8.27229 10.0241 8.24684 10.0604 8.21776 10.0966C8.1596 10.1728 8.10144 10.2526 8.04691 10.3323C7.86515 10.5898 7.70157 10.8617 7.55979 11.1446C7.21082 11.8589 6.89092 12.5805 6.56739 13.3057C6.24022 14.0309 5.9385 14.7706 5.62224 15.4994C5.32052 16.1883 4.98972 16.8664 4.64801 17.5372C4.46262 17.8962 4.27359 18.2552 4.05184 18.596C3.95733 18.741 3.85918 18.8825 3.75739 19.0202C3.77193 18.9912 3.78647 18.9659 3.80101 18.9368C4.0991 18.3531 4.30267 17.7294 4.48806 17.1021C4.64074 16.6996 4.79342 16.2971 4.96427 15.9055C5.16421 15.4595 5.34233 15.0063 5.51318 14.5494C5.85489 13.6864 6.2693 12.8597 6.74188 12.0583C7.04723 11.5398 7.3744 11.0322 7.67248 10.5064C7.95239 10.0132 8.17414 9.4911 8.4286 8.98709C8.61763 8.60999 8.8103 8.23288 8.97388 7.8449C9.02114 7.73612 9.06839 7.62371 9.11202 7.51131C9.13019 7.45692 9.152 7.3989 9.16291 7.34088C9.16291 7.31913 9.16654 7.29375 9.152 7.27199C9.11929 7.22123 9.05385 7.23936 9.01387 7.27199C8.89754 7.35901 8.78848 7.44966 8.67579 7.54394C8.31228 7.85215 7.93422 8.14223 7.54525 8.41781C8.37771 7.40978 9.26469 6.37999 9.66457 5.11089C9.69365 5.00211 9.77362 4.73016 9.69365 4.63951C9.63912 4.59237 9.57732 4.65764 9.5446 4.69753C9.20653 5.11814 8.85028 5.52426 8.45405 5.89048C8.60673 5.65117 8.75213 5.4046 8.883 5.15078C9.10111 4.71566 9.31559 4.27691 9.49371 3.82366C9.70455 3.26888 9.8645 2.6996 10.0317 2.13394C10.2026 1.51752 10.3552 0.89385 10.5406 0.281055C10.5588 0.223039 10.577 0.165023 10.5879 0.103381C10.5879 0.0852512 10.5952 0.0634952 10.5879 0.0453652C10.577 0.0127311 10.537 -0.00902488 10.5043 0.00185313C10.4752 0.00910514 10.4461 0.0272352 10.4207 0.0489912C10.0499 0.397088 9.71909 0.78507 9.36284 1.14404C9.10111 1.41237 8.83574 1.68432 8.58491 1.96352C8.07962 2.53643 7.62886 3.1601 7.27261 3.83454C6.94908 4.44733 6.7128 5.11089 6.56739 5.78895C6.37109 6.6737 6.30566 7.5802 6.18206 8.47582C6.04029 8.08784 5.95668 7.6781 5.9385 7.26111C5.93123 7.12332 5.92396 6.97828 5.91669 6.82962C5.91669 6.76072 5.91669 6.61206 5.81127 6.64469C5.77855 6.66282 5.76038 6.69908 5.7422 6.73534C5.70948 6.80061 5.6804 6.8695 5.65132 6.9384C5.56044 7.14871 5.45866 7.35176 5.36414 7.55844C5.09514 8.13861 4.86249 8.74052 4.74253 9.36782C4.63711 9.88271 4.58258 10.4085 4.58258 10.9306C4.58258 11.6631 4.69527 12.3847 4.69163 13.1207C4.4917 12.798 4.28813 12.4717 4.20452 12.0946C4.1609 11.9169 4.12818 11.7392 4.0991 11.5616C4.09183 11.5108 4.08092 11.4564 4.07365 11.4056C4.06638 11.3694 4.06638 11.3222 4.0373 11.2969C3.97187 11.2461 3.92824 11.3331 3.9137 11.3875C3.79011 11.7791 3.72831 12.1925 3.71377 12.6058C3.69559 13.0228 3.73558 13.4398 3.77557 13.8568C3.81192 14.2339 3.85191 14.611 3.87735 14.9918C3.85918 15.1295 3.85191 15.2673 3.841 15.4051C3.79738 16.0832 3.72104 16.7612 3.59017 17.4284C3.50293 17.9651 3.39024 18.4945 3.20121 19.0094C3.09215 19.3756 2.95038 19.7309 2.77226 20.0682C2.74318 20.1153 2.71773 20.1661 2.69228 20.2132C2.33967 20.8405 2.01614 21.4823 1.65989 22.106C1.44541 22.4722 1.23821 22.8457 1.04554 23.2264C0.903772 23.473 0.772906 23.7232 0.660215 23.9806C0.562065 24.1982 0.46755 24.4194 0.380306 24.6405C0.347589 24.7348 0.253074 24.9234 0.303967 25.0177C0.380306 25.0865 0.442104 24.9959 0.489361 24.898C0.500267 24.8871 0.511172 24.8762 0.518443 24.8654C0.547524 24.8255 0.57297 24.7856 0.594782 24.7421C0.652945 24.6442 0.711107 24.5499 0.765635 24.4556C1.00556 24.0386 1.23821 23.618 1.4745 23.1974C1.82711 22.5447 2.21244 21.9102 2.6014 21.2756C2.66684 21.1705 2.72863 21.0653 2.79407 20.9565C2.87404 20.8405 2.95402 20.7281 3.03763 20.6121C3.18667 20.409 3.34662 20.2132 3.5211 20.0319C3.73558 19.7962 4.00458 19.5678 4.25541 19.3683C4.61893 19.0746 4.9461 18.741 5.26599 18.4038C6.01121 17.5952 6.7128 16.7467 7.43983 15.92C7.92331 15.3398 8.44314 14.7814 8.99933 14.2738C9.4101 13.9293 9.83542 13.5994 10.268 13.2839C10.9587 12.7908 11.6857 12.352 12.3728 11.8516C13.1834 11.2606 13.9759 10.6442 14.7029 9.95161C14.7247 9.92622 14.7502 9.89722 14.7356 9.86096C14.7211 9.81382 14.6629 9.82107 14.623 9.83195C14.4594 9.87546 14.3031 9.94073 14.1431 9.98061C13.9795 10.0169 13.8123 10.0495 13.6487 10.0785C13.2016 10.1655 12.7436 10.2018 12.2892 10.2054C12.5473 10.1075 12.809 10.0132 13.0707 9.92622C13.7214 9.73042 14.3794 9.56362 15.0156 9.32431C16.1461 8.93633 17.1349 8.24013 18.04 7.47505C18.2618 7.29012 18.4872 7.10519 18.6907 6.89851C18.7271 6.855 18.7816 6.81511 18.7889 6.75347C18.7889 6.68095 18.7016 6.68095 18.6471 6.69546C18.1382 6.80424 17.6256 6.90939 17.1094 6.96378C16.7677 6.99641 16.4115 7.0218 16.0698 6.96015C16.466 6.8405 16.8659 6.73534 17.273 6.65194C17.6511 6.5758 18.0328 6.50328 18.3999 6.39087C18.9706 6.22408 19.4832 5.89774 19.9194 5.49887C20.1812 5.24868 20.4247 4.98036 20.6646 4.70841C20.9191 4.41833 21.1481 4.10649 21.4171 3.82729C21.7697 3.45743 22.1551 3.12022 22.5658 2.81926C22.8712 2.57994 23.1984 2.37689 23.5364 2.18471C23.5619 2.1702 23.5873 2.16295 23.6128 2.14845C23.6346 2.13394 23.6418 2.10856 23.6309 2.08318H23.6164ZM3.75012 19.3103C3.75012 19.3103 3.75012 19.3103 3.74285 19.3103H3.74649H3.75012ZM4.61893 15.4124C4.89884 14.4986 5.16784 13.5812 5.45866 12.6711C5.7313 11.7392 6.00393 10.8073 6.29111 9.88271C6.61101 8.78766 6.86547 7.67448 7.20355 6.58305C7.44347 5.81434 7.71247 5.05288 8.01419 4.30592C8.28683 3.63148 8.59219 2.96792 9.0066 2.36601C8.66852 3.16735 8.31955 3.96145 8.0251 4.7773C7.74155 5.49162 7.50163 6.22045 7.29443 6.96015C6.78913 8.59548 6.48378 10.2852 5.99666 11.9242C5.78946 12.6494 5.55681 13.3673 5.30598 14.0816C5.12786 14.5929 4.91701 15.1042 4.74253 15.6154C4.35356 16.7504 3.99368 17.8962 3.55019 19.013C3.54292 19.0202 3.53564 19.0275 3.52837 19.0347C3.51383 19.0311 3.49929 19.0347 3.48839 19.0384C3.56473 18.7991 3.63743 18.5561 3.69923 18.3132C3.99368 17.3414 4.31721 16.3805 4.61893 15.4124ZM15.5463 6.49965C15.1246 6.78973 14.7029 7.07981 14.3031 7.39527C13.6378 7.92467 12.9908 8.4722 12.3473 9.02698C11.9729 9.36057 11.6348 9.73405 11.2822 10.093C10.9332 10.4556 10.5806 10.811 10.2498 11.1881C9.80997 11.6776 9.35921 12.1598 8.93753 12.6675C8.56674 13.1026 8.22867 13.5667 7.89423 14.0309C7.64704 14.3608 7.39621 14.6908 7.16356 15.0316C6.88728 15.4269 6.6001 15.8112 6.32383 16.2065C6.04756 16.6053 5.77492 17.0042 5.50591 17.4067C5.33506 17.6605 5.16421 17.9179 4.96427 18.1536C4.72799 18.4328 4.48443 18.7265 4.21542 18.984C4.11364 19.0746 4.01549 19.1653 3.91734 19.2596C3.91734 19.2596 3.91734 19.2596 3.9137 19.2596C3.86645 19.2487 3.86645 19.2052 3.87735 19.1689C4.07002 18.955 4.26268 18.7447 4.45171 18.5271C4.68073 18.2624 4.88793 17.9796 5.0806 17.6895C6.10572 16.1956 7.14175 14.7053 8.24321 13.2621C8.65398 12.7291 9.0793 12.2034 9.53733 11.7102C10.3262 10.8762 11.1404 10.0713 11.9547 9.25904C13.0053 8.21475 14.1249 7.23573 15.3427 6.39087C16.3133 5.73819 17.3457 5.17979 18.4108 4.69753C17.4148 5.23055 16.4842 5.8796 15.5463 6.50328V6.49965Z" fill="#5534DA"/>
<path d="M16.4408 24.8479C16.4118 24.9096 16.3718 24.964 16.3282 25.0147C15.8701 25.4897 15.194 25.7363 14.5542 25.8632C13.9071 25.9974 13.2419 25.8741 12.6094 25.7327C13.2383 25.2142 13.9435 24.6086 14.0853 23.7638C14.2234 22.7521 13.2673 22.0958 12.3476 22.0523C9.27227 21.9507 6.49499 23.6151 3.88856 25.0546C2.89979 25.5949 1.79833 26.2875 0.624164 26.0155C0.460581 25.9684 0.293363 25.8632 0.24247 25.6892C0.246105 25.642 0.224294 25.5876 0.177037 25.5659C-0.186482 25.4934 0.0716165 26.0046 0.238835 26.0953C1.682 26.9184 3.68862 25.3918 4.96457 24.7319C6.28051 24.0139 7.64007 23.2887 9.07233 22.821C10.261 22.4693 11.6679 22.0777 12.8929 22.4076C13.5182 22.5889 14.0053 23.2416 13.8053 23.8943C13.5545 24.6485 12.9038 25.1815 12.2967 25.6529C11.3407 25.4245 10.3483 25.1743 9.35951 25.3157C8.81423 25.4136 8.18535 25.6058 7.91271 26.1279C7.48739 26.9836 8.5525 27.1504 9.17048 27.1323C10.3301 27.096 11.4352 26.621 12.3513 25.9212C13.3909 26.1932 14.4197 26.2947 15.4339 25.8668C15.8919 25.6565 16.4118 25.4245 16.659 24.9567C16.7353 24.8153 16.5099 24.6993 16.4372 24.8407L16.4408 24.8479ZM9.13776 26.8894C8.80333 26.864 8.21443 26.9111 8.07266 26.5376C8.05085 26.0663 8.57431 25.7907 8.96691 25.671C9.97386 25.3664 11.0353 25.6203 12.0314 25.8523C11.1916 26.4651 10.1847 26.8604 9.13776 26.8894Z" fill="#5534DA"/>
</svg>
